<?xml version="1.0" encoding="UTF-8"?>
<svg height="128px" viewBox="0 0 128 128" width="128px" xmlns="http://www.w3.org/2000/svg" xmlns:xlink="http://www.w3.org/1999/xlink">
    <clipPath id="a">
        <rect height="128" width="128"/>
    </clipPath>
    <clipPath id="b">
        <rect height="128" width="128"/>
    </clipPath>
    <filter id="c" height="100%" width="100%" x="0%" y="0%">
        <feColorMatrix in="SourceGraphic" type="matrix" values="0 0 0 0 1 0 0 0 0 1 0 0 0 0 1 0 0 0 1 0"/>
    </filter>
    <mask id="d">
        <g clip-path="url(#b)" filter="url(#c)">
            <g clip-path="url(#a)">
                <path d="m 25.035156 62.207031 c -0.992187 0 -1.792968 -0.800781 -1.792968 -1.792969 v -7.171874 c 0 -0.988282 0.800781 -1.792969 1.792968 -1.792969 c 0.988282 0 1.792969 0.804687 1.792969 1.792969 v 7.171874 c 0 0.992188 -0.804687 1.792969 -1.792969 1.792969 z m 0 0" fill="#c0bfbc"/>
                <path d="m 28.621094 55.035156 h -7.171875 c -0.992188 0 -1.796875 -0.800781 -1.796875 -1.792968 c 0 -0.988282 0.804687 -1.792969 1.796875 -1.792969 h 7.171875 c 0.988281 0 1.792968 0.804687 1.792968 1.792969 c 0 0.992187 -0.804687 1.792968 -1.792968 1.792968 z m 0 0" fill="#c0bfbc"/>
                <path d="m 57.308594 62.207031 c -0.988282 0 -1.792969 -0.800781 -1.792969 -1.792969 v -7.171874 c 0 -0.988282 0.804687 -1.792969 1.792969 -1.792969 c 0.992187 0 1.792968 0.804687 1.792968 1.792969 v 7.171874 c 0 0.992188 -0.800781 1.792969 -1.792968 1.792969 z m 0 0" fill="#c0bfbc"/>
                <path d="m 60.894531 55.035156 h -7.171875 c -0.988281 0 -1.792968 -0.800781 -1.792968 -1.792968 c 0 -0.988282 0.804687 -1.792969 1.792968 -1.792969 h 7.171875 c 0.992188 0 1.792969 0.804687 1.792969 1.792969 c 0 0.992187 -0.800781 1.792968 -1.792969 1.792968 z m 0 0" fill="#c0bfbc"/>
                <path d="m 15.585938 99.734375 h 96.828124 c 1.980469 0 3.585938 1.457031 3.585938 3.253906 v 9.757813 c 0 1.796875 -1.605469 3.253906 -3.585938 3.253906 h -96.828124 c -1.980469 0 -3.585938 -1.457031 -3.585938 -3.253906 v -9.757813 c 0 -1.796875 1.605469 -3.253906 3.585938 -3.253906 z m 0 0" fill="#63452c"/>
                <path d="m 105.242188 98.070312 c -28.691407 0 -34.070313 -28.691406 -41.992188 -28.691406 h -38.699219 v 28.691406 z m 0 0" fill="#b5835a"/>
                <path d="m 76.273438 14.492188 h -24.546876 c -1.507812 0 -2.726562 1.605468 -2.726562 3.585937 v 14.34375 c 0 1.984375 1.21875 3.589844 2.726562 3.589844 h 6.636719 c 0.960938 0 1.847657 0.660156 2.339844 1.738281 l 2.128906 6.355469 c 0.246094 0.539062 0.6875 0.867187 1.167969 0.867187 c 0.476562 0 0.921875 -0.328125 1.167969 -0.867187 l 2.128906 -6.355469 c 0.492187 -1.078125 1.378906 -1.738281 2.335937 -1.738281 h 6.640626 c 1.503906 0 2.726562 -1.605469 2.726562 -3.589844 v -14.34375 c 0 -1.980469 -1.222656 -3.585937 -2.726562 -3.585937 z m 0 0" fill="#c0bfbc"/>
                <path d="m 56.828125 81.929688 c -0.992187 0 -1.792969 -0.800782 -1.792969 -1.789063 v -3.589844 c 0 -0.988281 0.800782 -1.792969 1.792969 -1.792969 c 0.988281 0 1.792969 0.804688 1.792969 1.792969 v 3.589844 c 0 0.988281 -0.804688 1.789063 -1.792969 1.789063 z m 0 0" fill="#f6d32d"/>
                <path d="m 15.585938 98.070312 h 96.828124 c 1.980469 0 3.585938 1.457032 3.585938 3.253907 v 9.757812 c 0 1.796875 -1.605469 3.253907 -3.585938 3.253907 h -96.828124 c -1.980469 0 -3.585938 -1.457032 -3.585938 -3.253907 v -9.757812 c 0 -1.796875 1.605469 -3.253907 3.585938 -3.253907 z m 0 0" fill="#865e3c"/>
                <path d="m 19.171875 87.3125 h 43.035156 c 1.980469 0 3.585938 1.605469 3.585938 3.585938 v 7.171874 h -50.207031 v -7.171874 c 0 -1.980469 1.605468 -3.585938 3.585937 -3.585938 z m 0 0" fill="#ff7800"/>
                <path d="m 76.273438 12.757812 h -24.546876 c -1.507812 0 -2.726562 1.605469 -2.726562 3.589844 v 14.34375 c 0 1.980469 1.21875 3.585938 2.726562 3.585938 h 6.636719 c 0.960938 0 1.847657 0.660156 2.339844 1.738281 l 2.128906 6.355469 c 0.246094 0.539062 0.6875 0.867187 1.167969 0.867187 c 0.476562 0 0.921875 -0.328125 1.167969 -0.867187 l 2.128906 -6.355469 c 0.492187 -1.078125 1.378906 -1.738281 2.335937 -1.738281 h 6.640626 c 1.503906 0 2.726562 -1.605469 2.726562 -3.585938 v -14.34375 c 0 -1.984375 -1.222656 -3.589844 -2.726562 -3.589844 z m 0 0" fill="#deddda"/>
                <path d="m 74 16 l -20 5.953125 l 4.375 3.160156 l 13.828125 -7.957031 l -11.640625 9.148438 l 5.351562 3.753906 z m 0 0" fill="#3584e4"/>
                <path d="m 57.75 23.738281 v 7.261719 l 3.539062 -2.945312 l -0.828124 -0.898438 l -1.460938 1.21875 v -4.636719 z m 0 0" fill="#3584e4" fill-rule="evenodd"/>
                <path d="m 40.6875 69.378906 c 3.960938 0 7.171875 3.210938 7.171875 7.171875 v 10.761719 h -14.34375 v -10.761719 c 0 -3.960937 3.210937 -7.171875 7.171875 -7.171875 z m 0 0" fill="#ffa348"/>
                <path d="m 19.214844 65.726562 c 0 0.96875 0.382812 1.898438 1.070312 2.582032 c 0.683594 0.683594 1.613282 1.070312 2.578125 1.070312 h 40.386719 c 4.066406 0 8.121094 -0.492187 12.066406 -1.472656 l 12.347656 -3.0625 c 2.257813 -0.558594 4.570313 -0.84375 6.894532 -0.84375 h 17.898437 c 0.96875 0 1.894531 -0.390625 2.570313 -1.082031 c 0.671875 -0.695313 1.039062 -1.628907 1.015625 -2.597657 c -0.050781 -1.945312 -1.644531 -3.492187 -3.585938 -3.492187 h -18.324219 c -2.167968 0 -4.332031 0.246094 -6.445312 0.734375 l -17.085938 3.945312 c -2.007812 0.464844 -4.058593 0.703126 -6.117187 0.699219 h -41.753906 c -1.9375 0.011719 -3.503907 1.582031 -3.515625 3.519531 z m 0 0" fill="#e5a50a"/>
                <path d="m 19.652344 63.933594 c 0 0.96875 0.386718 1.898437 1.070312 2.582031 c 0.683594 0.6875 1.613282 1.070313 2.582032 1.070313 h 40.386718 c 4.066406 0 8.117188 -0.492188 12.0625 -1.472657 l 12.347656 -3.0625 c 2.257813 -0.558593 4.574219 -0.84375 6.898438 -0.84375 h 17.894531 c 0.96875 0 1.894531 -0.390625 2.570313 -1.082031 c 0.675781 -0.695312 1.042968 -1.628906 1.015625 -2.597656 c -0.050781 -1.945313 -1.640625 -3.492188 -3.585938 -3.492188 h -18.324219 c -2.167968 0 -4.332031 0.246094 -6.441406 0.734375 l -17.085937 3.945313 c -2.007813 0.46875 -4.0625 0.703125 -6.121094 0.699218 h -41.753906 c -1.9375 0.015626 -3.503907 1.582032 -3.515625 3.519532 z m 0 0" fill="#f5c211"/>
                <path d="m 47.859375 80.140625 h 10.761719 c 1.980468 0 3.585937 1.605469 3.585937 3.585937 v 3.585938 h -14.347656 z m 0 0" fill="#ffbe6f"/>
                <path d="m 33.515625 87.3125 h -14.34375 v -3.585938 c 0 -1.980468 1.605469 -3.585937 3.585937 -3.585937 h 10.757813 z m 0 0" fill="#ffbe6f"/>
                <path d="m 42.484375 76.550781 c 0 0.992188 -0.804687 1.796875 -1.796875 1.796875 c -0.988281 0 -1.792969 -0.804687 -1.792969 -1.796875 c 0 -0.988281 0.804688 -1.792969 1.792969 -1.792969 c 0.992188 0 1.796875 0.804688 1.796875 1.792969 z m 0 0" fill="#b19046"/>
            </g>
        </g>
    </mask>
    <mask id="e">
        <g filter="url(#c)">
            <rect fill-opacity="0.8" height="128" width="128"/>
        </g>
    </mask>
    <linearGradient id="f" gradientTransform="matrix(0 0.37 -0.98462 0 295.38501 -30.360001)" gradientUnits="userSpaceOnUse" x1="300" x2="428" y1="235" y2="235">
        <stop offset="0" stop-color="#f9f06b"/>
        <stop offset="1" stop-color="#f5c211"/>
    </linearGradient>
    <clipPath id="g">
        <rect height="128" width="128"/>
    </clipPath>
    <clipPath id="h">
        <rect height="128" width="128"/>
    </clipPath>
    <g fill="#c0bfbc">
        <path d="m 25.035156 62.207031 c -0.992187 0 -1.792968 -0.800781 -1.792968 -1.792969 v -7.171874 c 0 -0.988282 0.800781 -1.792969 1.792968 -1.792969 c 0.988282 0 1.792969 0.804687 1.792969 1.792969 v 7.171874 c 0 0.992188 -0.804687 1.792969 -1.792969 1.792969 z m 0 0"/>
        <path d="m 28.621094 55.035156 h -7.171875 c -0.992188 0 -1.796875 -0.800781 -1.796875 -1.792968 c 0 -0.988282 0.804687 -1.792969 1.796875 -1.792969 h 7.171875 c 0.988281 0 1.792968 0.804687 1.792968 1.792969 c 0 0.992187 -0.804687 1.792968 -1.792968 1.792968 z m 0 0"/>
        <path d="m 57.308594 62.207031 c -0.988282 0 -1.792969 -0.800781 -1.792969 -1.792969 v -7.171874 c 0 -0.988282 0.804687 -1.792969 1.792969 -1.792969 c 0.992187 0 1.792968 0.804687 1.792968 1.792969 v 7.171874 c 0 0.992188 -0.800781 1.792969 -1.792968 1.792969 z m 0 0"/>
        <path d="m 60.894531 55.035156 h -7.171875 c -0.988281 0 -1.792968 -0.800781 -1.792968 -1.792968 c 0 -0.988282 0.804687 -1.792969 1.792968 -1.792969 h 7.171875 c 0.992188 0 1.792969 0.804687 1.792969 1.792969 c 0 0.992187 -0.800781 1.792968 -1.792969 1.792968 z m 0 0"/>
    </g>
    <path d="m 15.585938 99.734375 h 96.828124 c 1.980469 0 3.585938 1.457031 3.585938 3.253906 v 9.757813 c 0 1.796875 -1.605469 3.253906 -3.585938 3.253906 h -96.828124 c -1.980469 0 -3.585938 -1.457031 -3.585938 -3.253906 v -9.757813 c 0 -1.796875 1.605469 -3.253906 3.585938 -3.253906 z m 0 0" fill="#63452c"/>
    <path d="m 105.242188 98.070312 c -28.691407 0 -34.070313 -28.691406 -41.992188 -28.691406 h -38.699219 v 28.691406 z m 0 0" fill="#b5835a"/>
    <path d="m 76.273438 14.492188 h -24.546876 c -1.507812 0 -2.726562 1.605468 -2.726562 3.585937 v 14.34375 c 0 1.984375 1.21875 3.589844 2.726562 3.589844 h 6.636719 c 0.960938 0 1.847657 0.660156 2.339844 1.738281 l 2.128906 6.355469 c 0.246094 0.539062 0.6875 0.867187 1.167969 0.867187 c 0.476562 0 0.921875 -0.328125 1.167969 -0.867187 l 2.128906 -6.355469 c 0.492187 -1.078125 1.378906 -1.738281 2.335937 -1.738281 h 6.640626 c 1.503906 0 2.726562 -1.605469 2.726562 -3.589844 v -14.34375 c 0 -1.980469 -1.222656 -3.585937 -2.726562 -3.585937 z m 0 0" fill="#c0bfbc"/>
    <path d="m 56.828125 81.929688 c -0.992187 0 -1.792969 -0.800782 -1.792969 -1.789063 v -3.589844 c 0 -0.988281 0.800782 -1.792969 1.792969 -1.792969 c 0.988281 0 1.792969 0.804688 1.792969 1.792969 v 3.589844 c 0 0.988281 -0.804688 1.789063 -1.792969 1.789063 z m 0 0" fill="#f6d32d"/>
    <path d="m 15.585938 98.070312 h 96.828124 c 1.980469 0 3.585938 1.457032 3.585938 3.253907 v 9.757812 c 0 1.796875 -1.605469 3.253907 -3.585938 3.253907 h -96.828124 c -1.980469 0 -3.585938 -1.457032 -3.585938 -3.253907 v -9.757812 c 0 -1.796875 1.605469 -3.253907 3.585938 -3.253907 z m 0 0" fill="#865e3c"/>
    <path d="m 19.171875 87.3125 h 43.035156 c 1.980469 0 3.585938 1.605469 3.585938 3.585938 v 7.171874 h -50.207031 v -7.171874 c 0 -1.980469 1.605468 -3.585938 3.585937 -3.585938 z m 0 0" fill="#ff7800"/>
    <path d="m 76.273438 12.757812 h -24.546876 c -1.507812 0 -2.726562 1.605469 -2.726562 3.589844 v 14.34375 c 0 1.980469 1.21875 3.585938 2.726562 3.585938 h 6.636719 c 0.960938 0 1.847657 0.660156 2.339844 1.738281 l 2.128906 6.355469 c 0.246094 0.539062 0.6875 0.867187 1.167969 0.867187 c 0.476562 0 0.921875 -0.328125 1.167969 -0.867187 l 2.128906 -6.355469 c 0.492187 -1.078125 1.378906 -1.738281 2.335937 -1.738281 h 6.640626 c 1.503906 0 2.726562 -1.605469 2.726562 -3.585938 v -14.34375 c 0 -1.984375 -1.222656 -3.589844 -2.726562 -3.589844 z m 0 0" fill="#deddda"/>
    <path d="m 74 16 l -20 5.953125 l 4.375 3.160156 l 13.828125 -7.957031 l -11.640625 9.148438 l 5.351562 3.753906 z m 0 0" fill="#3584e4"/>
    <path d="m 57.75 23.738281 v 7.261719 l 3.539062 -2.945312 l -0.828124 -0.898438 l -1.460938 1.21875 v -4.636719 z m 0 0" fill="#3584e4" fill-rule="evenodd"/>
    <path d="m 40.6875 69.378906 c 3.960938 0 7.171875 3.210938 7.171875 7.171875 v 10.761719 h -14.34375 v -10.761719 c 0 -3.960937 3.210937 -7.171875 7.171875 -7.171875 z m 0 0" fill="#ffa348"/>
    <path d="m 19.214844 65.726562 c 0 0.96875 0.382812 1.898438 1.070312 2.582032 c 0.683594 0.683594 1.613282 1.070312 2.578125 1.070312 h 40.386719 c 4.066406 0 8.121094 -0.492187 12.066406 -1.472656 l 12.347656 -3.0625 c 2.257813 -0.558594 4.570313 -0.84375 6.894532 -0.84375 h 17.898437 c 0.96875 0 1.894531 -0.390625 2.570313 -1.082031 c 0.671875 -0.695313 1.039062 -1.628907 1.015625 -2.597657 c -0.050781 -1.945312 -1.644531 -3.492187 -3.585938 -3.492187 h -18.324219 c -2.167968 0 -4.332031 0.246094 -6.445312 0.734375 l -17.085938 3.945312 c -2.007812 0.464844 -4.058593 0.703126 -6.117187 0.699219 h -41.753906 c -1.9375 0.011719 -3.503907 1.582031 -3.515625 3.519531 z m 0 0" fill="#e5a50a"/>
    <path d="m 19.652344 63.933594 c 0 0.96875 0.386718 1.898437 1.070312 2.582031 c 0.683594 0.6875 1.613282 1.070313 2.582032 1.070313 h 40.386718 c 4.066406 0 8.117188 -0.492188 12.0625 -1.472657 l 12.347656 -3.0625 c 2.257813 -0.558593 4.574219 -0.84375 6.898438 -0.84375 h 17.894531 c 0.96875 0 1.894531 -0.390625 2.570313 -1.082031 c 0.675781 -0.695312 1.042968 -1.628906 1.015625 -2.597656 c -0.050781 -1.945313 -1.640625 -3.492188 -3.585938 -3.492188 h -18.324219 c -2.167968 0 -4.332031 0.246094 -6.441406 0.734375 l -17.085937 3.945313 c -2.007813 0.46875 -4.0625 0.703125 -6.121094 0.699218 h -41.753906 c -1.9375 0.015626 -3.503907 1.582032 -3.515625 3.519532 z m 0 0" fill="#f5c211"/>
    <path d="m 47.859375 80.140625 h 10.761719 c 1.980468 0 3.585937 1.605469 3.585937 3.585937 v 3.585938 h -14.347656 z m 0 0" fill="#ffbe6f"/>
    <path d="m 33.515625 87.3125 h -14.34375 v -3.585938 c 0 -1.980468 1.605469 -3.585937 3.585937 -3.585937 h 10.757813 z m 0 0" fill="#ffbe6f"/>
    <path d="m 42.484375 76.550781 c 0 0.992188 -0.804687 1.796875 -1.796875 1.796875 c -0.988281 0 -1.792969 -0.804687 -1.792969 -1.796875 c 0 -0.988281 0.804688 -1.792969 1.792969 -1.792969 c 0.992188 0 1.796875 0.804688 1.796875 1.792969 z m 0 0" fill="#b19046"/>
    <g clip-path="url(#h)" mask="url(#d)">
        <g clip-path="url(#g)" mask="url(#e)">
            <path d="m 128 80.640625 v 47.359375 h -128 v -47.359375 z m 0 0" fill="url(#f)"/>
            <path d="m 13.308594 80.640625 l 47.355468 47.359375 h 21.214844 l -47.359375 -47.359375 z m 42.421875 0 l 47.363281 47.359375 h 21.214844 l -47.363282 -47.359375 z m 42.429687 0 l 29.839844 29.839844 v -21.210938 l -8.628906 -8.628906 z m -98.160156 7.90625 v 21.214844 l 18.238281 18.238281 h 21.214844 z m 0 0"/>
        </g>
    </g>
</svg>
